# xmcd
#
# Track frame offsets: 
#        150
#        16101
#        36401
#        49601
#        64873
#        84644
#        105599
#        120264
#        148113
#        163951
#        178507
#        193668
#        210164
#        226673
#        251123
#        266846
#        283725
#
# Disc length: 4046 seconds
#
# Revision: 0
# Processed by: cddbd v1.5.2PL0 Copyright (c) Steve Scherf et al.
# Submitted via: ExactAudioCopy v1.3
#
DISCID=ed0fcc11
DTITLE=Gaetano Letizia and The Underworld Blues Band - Beatles Blues Bla
DTITLE=st
DYEAR=2018
DGENRE=Blues Rock
TTITLE0=Come Together
TTITLE1=Do It In The Road
TTITLE2=Drive My Car
TTITLE3=Money
TTITLE4=Tax Man
TTITLE5=While My Guitar Gently Weeps
TTITLE6=She Came In Through The Bathroom Window
TTITLE7=I Want You (She's So Heavy)
TTITLE8=And I Love Her
TTITLE9=Can't Buy Me Love
TTITLE10=You Can't Do That
TTITLE11=Yesterday
TTITLE12=Get Back
TTITLE13=With A Little Help From My Friends
TTITLE14=Birthday
TTITLE15=Blackbird
TTITLE16=A Day In A Life
EXTD=
EXTT0=
EXTT1=
EXTT2=
EXTT3=
EXTT4=
EXTT5=
EXTT6=
EXTT7=
EXTT8=
EXTT9=
EXTT10=
EXTT11=
EXTT12=
EXTT13=
EXTT14=
EXTT15=
EXTT16=
PLAYORDER=
